<?xml version="1.0" standalone="no"?>
<!DOCTYPE svg PUBLIC "-//W3C//DTD SVG 20010904//EN"
 "http://www.w3.org/TR/2001/REC-SVG-20010904/DTD/svg10.dtd">
<svg version="1.0" xmlns="http://www.w3.org/2000/svg"
 width="512.000000pt" height="512.000000pt" viewBox="0 0 512.000000 512.000000"
 preserveAspectRatio="xMidYMid meet">

<g transform="translate(0.000000,512.000000) scale(0.100000,-0.100000)"
fill="#000000" stroke="none">
<path d="M1615 4946 c-364 -72 -627 -368 -652 -738 -27 -391 253 -753 641
-832 l60 -12 48 -279 c43 -259 47 -294 47 -458 1 -240 -12 -227 226 -227 l175
0 0 80 0 80 -120 0 -120 0 0 80 0 80 640 0 640 0 0 -80 0 -80 -280 0 -280 0 0
-80 0 -80 335 0 336 0 24 25 c25 24 25 27 26 202 0 164 4 199 47 458 l48 279
56 12 c393 78 667 428 645 824 -7 124 -25 196 -76 305 -77 163 -205 292 -366
370 -134 65 -196 79 -355 79 -144 1 -212 -13 -341 -71 l-57 -25 -91 37 c-159
63 -304 79 -453 51 -75 -14 -233 -70 -243 -86 -3 -4 -40 7 -82 26 -43 18 -105
40 -138 49 -84 22 -254 28 -340 11z m275 -161 c74 -17 120 -34 120 -44 0 -4
-16 -23 -36 -42 -20 -18 -59 -67 -85 -108 -65 -98 -65 -153 0 -181 43 -17 78
3 117 71 76 130 211 237 357 285 70 23 99 27 197 27 97 0 127 -4 196 -26 148
-49 285 -158 356 -285 48 -83 90 -102 142 -61 41 32 36 81 -16 162 -24 36 -62
86 -85 111 -24 24 -43 47 -43 49 0 8 53 26 120 42 329 76 677 -146 756 -480
23 -102 15 -256 -19 -353 -94 -267 -360 -446 -637 -429 -82 6 -220 40 -220 55
0 5 16 24 36 43 55 51 134 176 134 211 0 57 -68 96 -120 68 -10 -5 -31 -33
-48 -62 -70 -126 -209 -237 -355 -284 -70 -23 -99 -27 -197 -27 -98 0 -127 4
-197 27 -146 47 -281 155 -353 282 -50 87 -94 105 -146 61 -19 -16 -27 -34
-27 -55 0 -39 53 -129 121 -202 28 -32 52 -60 52 -63 0 -19 -170 -57 -255 -57
-207 0 -423 120 -533 293 -115 183 -134 413 -50 605 120 271 434 432 718 367z
m361 -1360 c214 -86 405 -86 620 0 l90 36 72 -29 c84 -35 182 -62 226 -62 17
0 31 -5 31 -11 0 -13 -68 -423 -75 -456 l-5 -23 -650 0 -650 0 -5 23 c-7 33
-75 443 -75 456 0 6 15 11 33 11 42 0 161 33 229 64 29 13 57 25 62 25 5 1 48
-15 97 -34z"/>
<path d="M2320 2480 l0 -80 80 0 80 0 0 80 0 80 -80 0 -80 0 0 -80z"/>
<path d="M1225 2392 c-119 -41 -187 -101 -239 -212 -25 -54 -31 -80 -34 -155
-8 -194 74 -372 250 -541 131 -126 271 -187 458 -200 l85 -6 227 -226 228
-226 -125 -126 c-79 -80 -131 -142 -144 -170 -38 -83 -23 -181 37 -250 65 -76
153 -103 248 -75 52 15 70 29 191 148 l134 131 127 -126 c70 -69 143 -134 162
-144 48 -25 153 -25 200 0 49 26 88 64 113 111 28 52 29 155 3 205 -10 19 -75
92 -144 163 l-127 127 230 230 230 230 45 0 c68 0 167 18 243 45 181 63 349
220 437 410 47 100 64 169 64 265 1 153 -56 269 -166 340 -79 51 -142 70 -238
70 -245 0 -528 -186 -646 -425 -44 -89 -74 -210 -74 -294 l0 -66 -233 -233
-232 -232 -226 227 -227 228 -6 91 c-6 105 -33 200 -84 299 -27 52 -62 97
-141 176 -93 92 -118 111 -201 152 -52 25 -123 53 -156 61 -82 21 -206 20
-269 -2z m246 -158 c196 -58 370 -231 431 -428 17 -57 20 -83 14 -154 l-6 -86
550 -551 c502 -503 550 -553 550 -583 0 -44 -38 -82 -82 -82 -30 0 -80 48
-583 550 l-551 550 -86 -6 c-71 -6 -97 -3 -154 14 -284 87 -500 406 -432 636
15 50 89 127 138 143 52 16 149 15 211 -3z m2364 -8 c63 -29 100 -72 120 -138
19 -64 19 -96 0 -177 -26 -107 -79 -196 -174 -291 -133 -132 -267 -189 -415
-177 -41 4 -78 2 -90 -5 -12 -5 -132 -121 -268 -256 l-248 -247 -55 55 -55 54
255 256 c153 153 255 264 256 275 0 11 0 58 -1 105 -2 136 50 256 162 376 77
82 154 132 253 166 104 36 190 37 260 4z m-1537 -1753 c-122 -120 -129 -125
-160 -119 -41 8 -68 39 -68 79 0 25 20 50 122 154 l122 123 56 -55 55 -55
-127 -127z"/>
</g>
</svg>
